<?xml version="1.0" encoding="iso-8859-1"?>
<!-- Uploaded to: SVG Repo, www.svgrepo.com, Generator: SVG Repo Mixer Tools -->
<svg fill="#000000" height="200px" width="200px" version="1.1" id="Layer_1" xmlns="http://www.w3.org/2000/svg" xmlns:xlink="http://www.w3.org/1999/xlink" 
	 viewBox="0 0 512 512" xml:space="preserve">
<g>
	<g>
		<path d="M469.333,341.333h-29.483l-28.8-57.6l18.453-22.592c22.293-27.264,24.533-67.051,5.419-96.768
			C420.309,141.589,395.691,128,369.131,128h-27.797V85.333C341.333,73.557,331.776,64,320,64h-12.501l21.333-21.333H384
			c11.776,0,21.333-9.557,21.333-21.333S395.776,0,384,0h-64c-5.675,0-11.093,2.24-15.083,6.251L256,55.168L207.083,6.251
			C203.072,2.24,197.653,0,192,0h-64c-11.797,0-21.333,9.557-21.333,21.333S116.203,42.667,128,42.667h55.168L204.501,64H192
			c-11.797,0-21.333,9.557-21.333,21.333V128h-27.819c-26.56,0-51.179,13.611-65.792,36.373
			c-19.115,29.717-16.875,69.504,5.419,96.768l19.989,24.469l-29.888,55.723H42.667c-11.797,0-21.333,9.557-21.333,21.333v128
			c0,11.776,9.536,21.333,21.333,21.333H128c11.776,0,21.333-9.557,21.333-21.333V438.08l68.501-45.675
			c10.688,8,23.808,12.928,38.165,12.928c14.336,0,27.456-4.928,38.144-12.928l68.523,45.675v52.587
			c0,11.776,9.536,21.333,21.333,21.333h85.333c11.776,0,21.333-9.557,21.333-21.333v-128
			C490.667,350.891,481.109,341.333,469.333,341.333z M149.333,386.795v-24.128c0-11.776-9.557-21.333-21.333-21.333h-7.04
			l10.688-19.925c11.648,12.373,27.712,19.925,44.821,19.925H192c0,5.397,0.875,10.581,2.133,15.595L149.333,386.795z M192,256
			c-11.797,0-21.333-9.557-21.333-21.333s9.536-21.333,21.333-21.333c11.776,0,21.333,9.557,21.333,21.333S203.776,256,192,256z
			 M256,362.667c-11.776,0-21.333-9.579-21.333-21.333c0-4.693,1.813-8.832,4.416-12.352c8.171-10.923,25.643-10.923,33.835,0
			c2.581,3.52,4.416,7.659,4.416,12.352C277.333,353.088,267.755,362.667,256,362.667z M298.667,234.667
			c0-11.776,9.536-21.333,21.333-21.333c11.776,0,21.333,9.557,21.333,21.333S331.776,256,320,256
			C308.203,256,298.667,246.443,298.667,234.667z M384,341.333c-11.797,0-21.333,9.557-21.333,21.333v24.128l-44.821-29.867
			c1.28-5.013,2.155-10.197,2.155-15.595h15.509c17.728,0,34.24-8.149,45.952-21.333l10.667,21.333H384z"/>
	</g>
</g>
</svg>