<svg width="1024" height="1024" xmlns="http://www.w3.org/2000/svg" version="1.1">
 <g>
  <title>Layer 1</title>
  <g stroke="null" stroke-width="0" id="svg_3">
   <path stroke="null" fill="#bef7f6" d="m778.59706,381.847l-21.48914,3.05539c-1.7002,0.23836 -1.78784,-0.08668 -0.22786,-0.99679c11.81377,-6.99923 25.48549,-15.64534 35.10828,-27.30351c1.63009,-1.97192 1.40223,-2.36197 -0.66606,-1.17015c-4.06646,2.36197 -7.87,4.9623 -12.12927,6.91255c-17.33504,7.99603 -31.70788,13.67342 -43.11851,16.98885c-13.18094,3.85716 -26.58975,6.34915 -40.24394,7.45429c-0.57842,0.04334 -0.59595,0 -0.01753,-0.15169c7.29158,-1.79856 14.7935,-2.40531 21.43656,-4.44224c24.08326,-7.38928 42.03178,-13.7601 53.86308,-19.13412c12.62005,-5.72073 25.43291,-15.68868 38.42104,-29.92551c0.47325,-0.54174 0.40314,-0.75843 -0.24539,-0.69342c-8.88662,1.0618 -17.49279,3.55379 -25.78347,7.45429l-1.31459,-0.4984c-0.52584,-0.19503 -0.7537,-0.62841 -0.68359,-1.30017l0.07011,-0.75843c14.35531,-4.31222 27.60636,-11.67983 39.75316,-22.08117c6.76575,-5.78574 13.42633,-11.72317 19.98175,-17.81229c0.47325,-0.45506 0.40314,-0.65008 -0.17528,-0.62841c-10.35896,0.52007 -20.26219,3.25042 -29.69218,8.19105c-0.92898,0.06501 -1.43728,-0.23836 -1.54245,-0.86678c-0.08764,-0.45506 0.22786,-1.0618 0.9465,-1.79856c7.69473,-3.46711 14.93373,-7.90935 21.717,-13.32671c8.32573,-6.65252 15.21417,-16.29543 22.4707,-24.3998c0.45572,-0.52007 0.45572,-1.38684 0.01753,-1.90691c-0.29797,-0.34671 -0.64853,-0.41172 -1.03414,-0.21669c-13.82947,7.17259 -26.432,13.21836 -37.77251,18.18067c-16.54629,7.21593 -33.51325,12.22157 -50.88334,14.97359c-0.19281,0.04334 -0.21033,0.02167 -0.01753,-0.08668c0.05258,-0.02167 0.08764,-0.06501 0.12269,-0.13002c0.15775,-0.2817 0.38561,-0.43339 0.64853,-0.4984c13.67172,-3.18541 23.01407,-5.6774 28.02703,-7.49763c9.42998,-3.42377 19.00019,-7.38928 28.72814,-11.87486c10.30637,-4.74561 17.75571,-9.05783 22.34801,-12.89332c7.13383,-5.98077 13.81194,-13.54341 20.0168,-22.68791c2.08581,-3.07706 1.63009,-3.85716 -1.3847,-2.31863c-14.2852,7.34594 -28.53534,13.93346 -42.73289,19.78421c-10.11357,4.1822 -20.47253,6.78254 -30.72632,9.70791c-0.03506,0.02167 -0.07011,-0.02167 -0.08764,-0.06501l-0.08764,-0.54174c-0.05258,-0.32504 0.05258,-0.54174 0.3155,-0.60674c15.65237,-4.09553 32.04091,-10.16297 49.16561,-18.20234c12.98814,-6.08912 27.39603,-12.6983 36.23006,-25.91666c1.40223,-2.10194 1.03414,-2.81703 -1.08673,-2.14528c-7.92259,2.51366 -15.44203,5.30902 -22.54081,8.40775c-10.21874,4.44224 -23.71518,8.55943 -40.45427,12.32992c-0.26292,0.06501 -0.42067,0.02167 -0.50831,-0.13002c-0.14022,-0.2817 -0.08764,-0.45506 0.17528,-0.54174c3.62826,-1.25683 7.239,-2.18861 10.81468,-2.77369c4.39949,-0.71509 7.95764,-1.58187 10.67446,-2.57866c14.86362,-5.43903 26.60727,-10.50968 35.23098,-15.25529c5.80172,-3.18541 10.93738,-8.34274 15.38945,-15.47199c0.36808,-0.58508 0.26292,-0.7801 -0.3155,-0.60674l-40.48933,12.17823c-0.08764,0.02167 -0.10517,0.06501 -0.07011,0.15169c0.28045,0.93179 0.29797,0.86678 0.03506,-0.17336c-0.05258,-0.15169 0,-0.26003 0.12269,-0.30337c9.20212,-3.25042 18.47435,-6.41416 27.8167,-9.46955c8.53606,-2.77369 14.02228,-7.58431 18.29907,-16.96718c1.77031,-3.87883 4.71499,-6.34915 7.02867,-9.70791c0.68359,-1.01846 0.54336,-1.2785 -0.45572,-0.80177c-1.80537,0.86678 -3.55815,1.8419 -5.25835,2.92538c-1.31459,0.84511 -1.50739,0.56341 -0.54336,-0.84511l0.59595,-0.88845c0.87639,-1.2785 0.64853,-1.79856 -0.70111,-1.5602c-0.4382,0.06501 -0.85886,0.19503 -1.27953,0.39005c-2.4539,1.0618 -2.73434,0.47673 -0.82381,-1.71189c3.34782,-3.85716 6.23991,-7.77933 8.65876,-11.76651c5.39858,-8.8628 11.16524,-18.98244 17.28246,-30.31556c1.63009,-3.03372 1.17437,-3.64047 -1.36717,-1.79856c-3.17254,2.27529 -6.39766,3.96551 -9.64032,5.07065c-11.58591,3.87883 -22.55834,9.03616 -32.89977,15.51533c-7.0462,4.42057 -12.28702,11.63649 -16.98449,19.15579c-0.12269,0.21669 -0.28045,0.26003 -0.47325,0.10835l0,-0.02167c-0.19281,-0.15169 -0.22786,-0.32504 -0.10517,-0.56341c2.68176,-5.65573 5.87183,-10.87806 9.55268,-15.64534c1.33212,-1.71189 1.64762,-3.25042 0.9465,-4.59392c-0.19281,-0.75843 -0.15775,-1.30017 0.14022,-1.60354c7.02867,-7.17259 14.25014,-12.00488 21.66442,-14.5402c13.86453,-4.70227 27.57131,-9.59957 41.1028,-14.69189c0.64853,-0.23836 1.20942,0.60674 0.89392,1.34351c-5.55633,12.80664 -11.11266,25.6783 -16.66898,38.63663c-2.52401,5.87242 -5.83677,10.98641 -9.93829,15.29863c-0.22786,0.23836 -0.24539,0.4984 -0.05258,0.7801l0.3155,0.47673c0.03506,0.06501 0.08764,0.08668 0.14022,0.02167l6.94103,-6.21913c2.29615,-2.0586 2.75187,-1.58187 1.33212,1.47352c-5.03049,10.9214 -10.21874,24.18311 -18.22896,32.2008c-0.22786,0.21669 -0.35056,0.4984 -0.36808,0.86678c-0.01753,0.08668 0,0.15169 0.01753,0.21669c0.08764,0.21669 0.21033,0.2817 0.36808,0.19503c1.10425,-0.54174 2.15593,-0.82344 3.19007,-0.84511c0.68359,-0.02167 1.05167,0.97513 0.59595,1.60354c-3.66332,4.9623 -7.39675,9.96795 -11.18277,15.01693c-0.26292,0.32504 -0.35056,0.73676 -0.28045,1.19182c0.03506,0.19503 0.15775,0.34671 0.38561,0.45506c0.19281,0.08668 0.38561,0.04334 0.54336,-0.10835l11.32299,-11.15977c1.71773,-1.69022 1.92806,-1.45185 0.61347,0.73676c-8.46595,14.06347 -17.91346,28.12695 -28.325,42.14708c-1.98065,2.68701 -4.52218,4.59392 -6.41519,7.36761c-1.0692,1.53853 -0.85886,1.92858 0.66606,1.12681l14.07486,-7.49763c1.03414,-0.54174 1.20942,-0.26003 0.54336,0.84511c-2.12087,3.59713 -4.55724,6.67419 -7.29158,9.23119c-4.62735,4.35556 -9.3774,8.90614 -14.25014,13.67342c-0.3155,0.30337 -0.42067,0.69342 -0.3155,1.17015c0.01753,0.06501 0.03506,0.13002 0.08764,0.19503c0.12269,0.15169 0.28045,0.17336 0.45572,0.10835c3.59321,-1.53853 7.0462,-3.57546 10.3239,-6.15412c0.57842,-0.45506 0.99909,-0.2817 1.22695,0.52007c0.17528,0.60674 0.03506,1.17015 -0.40314,1.66855c-6.32755,7.36761 -13.12836,13.69509 -20.38489,18.98244c-1.48987,1.08347 -1.3847,1.36518 0.28045,0.82344c3.36535,-1.08347 6.87092,-2.42698 10.53424,-4.00885c0.54336,-0.23836 1.10425,-0.26003 1.64762,-0.10835c0.52584,0.15169 0.70111,0.95346 0.3155,1.40851c-6.1698,7.21593 -12.32208,15.8187 -18.57952,22.49289c-8.09787,8.64611 -16.33595,14.86524 -22.7862,22.57957c-3.99635,4.78895 -8.01023,9.25286 -12.05916,13.43506c-1.34964,1.40851 -1.17437,1.88524 0.56089,1.45185l4.71499,-1.17015c0.66606,-0.17336 0.9465,0.15169 0.84134,0.99679c-0.08764,0.54174 -0.3155,0.95346 -0.70111,1.23516c-5.01296,3.46711 -9.2547,6.91255 -12.72522,10.358c-3.34782,3.31543 -3.06737,3.83549 0.80628,1.60354c7.48439,-4.26888 14.68834,-8.75446 21.62937,-13.45673c4.83769,-3.25042 5.34599,-2.42698 1.54245,2.49199c-11.28793,14.58354 -25.5556,23.09963 -42.82053,25.56995zm60.66388,-93.35199c1.87548,-0.80177 3.41793,-2.08027 4.62735,-3.83549c0.68359,-1.01846 0.57842,-1.17015 -0.3155,-0.45506c-1.59503,1.23516 -3.0849,2.53533 -4.48713,3.85716c-0.66606,0.62841 -0.61347,0.7801 0.17528,0.43339z" id="svg_123"/>
   <path stroke="null" fill="#bef7f6" d="m740.92971,454.00627l22.26037,-6.65252c2.17345,-0.62841 2.43637,-0.02167 0.78875,1.8419c-19.17547,21.7778 -40.52439,40.93359 -64.67776,53.09015c-7.62461,3.83549 -17.12471,6.04578 -25.45044,8.77613c-0.82381,0.2817 -0.87639,0.67175 -0.14022,1.19182c0.24539,0.19503 0.73617,0.34671 1.45481,0.47673c18.59705,3.53212 36.86107,2.42698 55.42306,-0.80177c2.38379,-0.41172 2.73434,0.43339 1.03414,2.557c-4.31185,5.43903 -11.49827,8.5811 -17.00201,11.89653c-3.48804,2.10194 -3.29524,3.07706 0.57842,2.94705c0.89392,-0.04334 1.78784,-0.15169 2.71682,-0.34671c3.76849,-0.80177 4.01388,0.04334 0.77123,2.53533c-8.50101,6.54417 -17.91346,11.74484 -27.18569,16.68548c-1.0692,0.56341 -1.05167,1.12681 0.01753,1.66855c2.40132,1.25683 6.67811,-0.62841 9.2547,-1.04013c4.55724,-0.75843 4.85521,0.30337 0.89392,3.18541c-9.72796,7.10758 -20.73544,13.45673 -33.03999,19.04745c-3.73343,1.71189 -7.74731,2.31863 -11.34052,4.63726c-1.05167,0.67175 -0.82381,2.622 0.35056,2.88204l6.62553,1.49519c0.631,0.15169 0.85886,1.12681 0.38561,1.66855c-5.94194,6.71753 -12.9005,11.89653 -20.91072,15.55866c-2.54154,1.17015 -5.04802,2.38364 -7.48439,3.6188c-0.87639,0.45506 -0.87639,0.88845 0,1.34351c2.29615,1.17015 4.75005,1.95025 7.3617,2.36197c8.64123,1.34351 16.87932,2.0586 24.71427,2.16694c3.27771,0.04334 3.43546,0.93179 0.45572,2.64367c-11.77871,6.82588 -24.01315,14.06347 -35.73928,18.78741c-10.90232,4.37723 -24.50393,8.14771 -40.80483,11.28978c-0.7537,0.15169 -1.50739,0.39005 -2.27862,0.73676c-1.54245,0.69342 -1.54245,1.36518 0.01753,2.03693c2.47143,1.04013 4.87274,2.0586 7.16889,3.03372c0.89392,0.39005 1.41976,1.12681 1.61256,2.21028c0.19281,1.17015 -0.50831,2.27529 -1.45481,2.3403c-12.51488,0.84511 -23.6626,2.49199 -33.44313,4.9623c-4.10152,1.04013 -4.08399,1.95025 0.05258,2.70868c1.98065,0.36838 4.17163,0.65008 6.55542,0.82344c1.03414,0.08668 1.48987,1.66855 0.70111,2.51366c-1.31459,1.40851 -2.75187,2.47032 -4.32938,3.14207c-11.18277,4.91897 -23.39968,9.05783 -33.72358,15.66701c-0.61347,0.39005 -0.64853,0.86678 -0.12269,1.40851c1.08673,1.14848 2.36626,2.01526 3.82107,2.60033c6.34508,2.622 12.62005,5.33068 18.84244,8.14771c1.29706,0.58508 1.26201,1.01846 -0.12269,1.25683l-46.1333,8.32107c-0.54336,0.10835 -0.9465,0.43339 -1.22695,0.99679c-12.63758,25.37493 -27.18569,50.66317 -43.6794,75.86474c-6.80081,10.42301 -13.61914,20.75933 -22.41812,27.86691c-7.41428,6.00244 -14.68834,10.16297 -21.82217,12.45993c-2.61165,0.84511 -3.2076,-0.13002 -1.77031,-2.96871c4.97791,-9.8596 9.88571,-19.87089 15.59979,-29.21042c6.04711,-9.8596 11.8313,-19.39416 17.3701,-28.582c13.02319,-21.60444 24.73179,-43.88064 35.10828,-66.85025c1.43728,-3.22875 2.06829,-6.34915 0.89392,-9.94628c-0.66606,-2.0586 0.40314,-4.33389 2.17345,-4.65893l2.57659,-0.45506c1.22695,-0.21669 2.08581,-1.60354 1.96312,-3.1204l-6.73069,-78.01002c-0.08764,-1.08347 0.19281,-1.25683 0.84134,-0.52007l8.83404,10.05462c0.9465,1.0618 1.29706,0.82344 1.0692,-0.73676c-0.96403,-6.56584 -2.48895,-13.00167 -2.94468,-19.69753c-0.7537,-10.61803 -0.78875,-21.43109 -0.14022,-32.43917c0.05258,-1.08347 0.49078,-1.38684 1.27953,-0.91012c1.24448,0.75843 1.61256,2.08027 2.47143,3.27209c0.82381,1.14848 1.24448,0.95346 1.27953,-0.58508l0.68359,-35.16952c0.05258,-2.8387 0.56089,-2.96871 1.50739,-0.39005c2.71682,7.41095 6.45025,14.21516 11.2003,20.39095c2.40132,3.1204 5.24083,9.98962 8.50101,20.58598c4.36443,12.76331 9.85065,29.90384 9.67537,43.77229c-0.05258,4.35556 -0.47325,4.3989 -1.26201,0.17336c-2.52401,-13.56508 -5.95947,-26.35005 -11.62096,-38.52828c-2.43637,-5.26568 -4.83769,-10.70471 -7.20395,-16.3171c-1.20942,-2.8387 -1.80537,-2.66534 -1.8229,0.56341c-0.05258,13.24003 1.15684,27.2385 3.66332,42.03873c2.54154,14.93025 6.11722,29.90384 5.78419,45.00745c-0.01753,0.97513 -0.42067,1.49519 -1.20942,1.5602l-0.45572,0.04334c-0.24539,0.02167 -0.45572,-0.17336 -0.50831,-0.45506c-1.05167,-6.11078 -2.66423,-11.80985 -4.82016,-17.11887c-0.77123,-1.90691 -1.03414,-1.79856 -0.80628,0.30337c0.42067,3.79215 1.01662,7.25927 1.77031,10.37967c0.21033,0.91012 -0.64853,1.58187 -1.20942,0.95346c-3.99635,-4.61559 -7.43181,-10.42301 -10.60435,-15.97038c-0.19281,-0.34671 -0.57842,-0.45506 -0.89392,-0.26003c-0.29797,0.19503 -0.4382,0.65008 -0.3155,1.0618c5.03049,16.20875 8.22056,30.81396 9.09695,48.3012c0.05258,1.12681 0.3155,1.21349 0.78875,0.23836c3.73343,-7.67099 7.20395,-15.51533 10.42907,-23.51135c2.82198,-6.93422 6.55542,-13.30504 9.74548,-20.2176c9.97335,-21.64778 21.50667,-44.79075 34.59997,-69.42892c22.87384,-43.0572 48.13147,-83.88244 75.77289,-122.43239c2.20851,-3.09873 3.61074,-6.65252 6.08216,-9.62124c6.85339,-8.21272 13.98722,-17.85563 21.4015,-28.90705c2.57659,-3.83549 5.25835,-7.36761 8.08034,-10.59636c2.92715,-3.35876 5.71408,-6.86922 8.37831,-10.50968c3.73343,-5.09232 7.88753,-10.31466 12.47983,-15.62367c6.01205,-6.95589 11.79624,-14.19349 17.35257,-21.75613l41.31314,-47.91115c1.41976,-1.62521 2.4539,-3.70548 2.99726,-5.98077l17.38763,-70.81576c1.01662,-4.1172 0.24539,-4.72394 -2.3312,-1.82023c-12.11174,13.80344 -20.38489,28.62534 -25.90616,48.99463c-4.43455,16.29543 -8.69381,32.74254 -12.7778,49.31967c-0.05258,0.19503 -0.15775,0.26003 -0.3155,0.19503l-0.01753,0c-0.19281,-0.06501 -0.28045,-0.21669 -0.22786,-0.47673c3.27771,-17.72561 7.16889,-35.25619 11.67355,-52.57009c3.27771,-12.61162 5.11813,-29.27543 12.79533,-39.24337c8.44842,-10.94307 16.98449,-20.93269 25.59066,-30.01219c2.61165,-2.73035 5.59138,-4.9623 8.95673,-6.67419c1.08673,-0.54174 1.29706,-0.21669 0.61347,0.97513c-3.0849,5.4607 -6.97608,8.66778 -8.85156,15.36364c-0.85886,3.09873 -0.3155,3.53212 1.63009,1.34351l9.41245,-10.57469c0.54336,-0.58508 1.31459,-0.65008 1.91054,-0.15169c0.99909,0.84511 1.01662,2.10194 0.05258,3.79215c-3.22512,4.37723 -6.64305,8.53776 -10.27132,12.50327c-3.2076,3.51045 -5.5388,6.86922 -6.95856,10.07629c-5.13566,11.48481 -8.85156,23.72805 -12.56747,36.0363c-3.22512,10.72638 -5.17072,21.64778 -7.97517,32.24414c-0.4382,1.66855 -0.10517,1.92858 0.96403,0.82344c5.6615,-5.78574 11.18277,-11.96154 16.59887,-18.48404c4.22421,-5.09232 8.57112,-9.83793 13.04072,-14.23683c4.36443,-4.29055 8.6237,-8.88447 12.7778,-13.7601c5.24083,-6.15412 10.60435,-11.7015 16.09056,-16.66381c8.64123,-7.801 16.52876,-16.8805 25.38032,-24.85486c15.10901,-13.60841 30.20048,-27.15182 45.27443,-40.65189c3.68085,-3.27209 7.6772,-6.41416 11.97152,-9.42621c0.85886,-0.58508 1.10425,-0.32504 0.73617,0.80177c-0.15775,0.45506 -0.38561,0.82344 -0.71864,1.12681c-28.30748,25.56995 -55.00239,54.65035 -81.59213,82.69062c-9.99087,10.53135 -20.24466,23.03463 -30.56857,34.34608c-8.46595,9.27452 -16.33595,19.5025 -24.74932,29.01539c-3.50557,3.96551 -6.80081,7.84434 -9.88571,11.65816c-17.91346,22.03783 -35.98467,44.37903 -54.21364,66.98027c-9.13201,11.31145 -17.19482,21.84281 -24.18843,31.61573c-22.24284,31.11733 -44.85376,62.94975 -64.59012,96.10401c-29.67465,49.90474 -56.80776,101.9981 -81.39933,156.2584c-1.87548,4.1822 -3.68085,8.51609 -5.39858,13.02334c-1.03414,2.75202 -0.57842,3.22875 1.3847,1.38684c12.7778,-11.93987 24.27607,-20.28261 34.52986,-25.00655c6.04711,-2.79536 5.8543,-3.98718 -0.59595,-3.6188c-3.22512,0.19503 -6.43272,0.4984 -9.60526,0.93179c-5.03049,0.67175 -5.2233,-0.21669 -0.57842,-2.66534c6.25744,-3.31543 12.05916,-5.4607 17.40515,-6.47917c20.38489,-3.9005 41.36572,-8.73279 62.97756,-14.47519c0.7537,-0.19503 0.7537,-0.39005 0,-0.56341c-12.40972,-2.99038 -25.02977,-7.41095 -37.33432,-7.36761c-10.09604,0.04334 -20.31478,0.97513 -30.65621,2.81703c-0.12269,0.02167 -0.21033,-0.04334 -0.22786,-0.19503l-0.07011,-0.54174c0,-0.02167 0,-0.02167 0.01753,-0.02167c3.47051,-0.60674 6.99361,-2.12361 10.11357,-2.68701c18.26402,-3.4021 36.51051,-6.47917 54.40644,-13.41339c8.37831,-3.25042 17.91346,-4.29055 26.76502,-5.22234c0.26292,-0.02167 0.38561,-0.21669 0.35056,-0.56341l0,0c-0.01753,-0.26003 -0.14022,-0.36838 -0.33303,-0.32504c-10.60435,2.36197 -20.0168,2.16694 -31.4099,-0.52007c-13.02319,-3.05539 -26.85266,-3.81382 -41.50595,-2.27529c-0.26292,0.02167 -0.40314,-0.13002 -0.4382,-0.45506l0,-0.02167c-0.01753,-0.26003 0.07011,-0.41172 0.28045,-0.45506c14.81103,-2.75202 30.98924,-4.63726 48.49956,-5.65573c2.61165,-0.15169 4.99544,-0.82344 7.11631,-1.97192c0.66606,-0.36838 0.68359,-1.51686 0.01753,-1.90691c-15.07395,-8.66778 -31.56766,-9.5779 -48.25417,-9.16618c-0.05258,0 -0.10517,-0.04334 -0.10517,-0.10835c-0.01753,-0.06501 0.01753,-0.13002 0.07011,-0.15169c5.80172,-1.53853 11.63849,-2.38364 17.49279,-2.49199c22.1552,-0.41172 45.67757,2.27529 67.27188,-6.86922c0.70111,-0.30337 1.34964,-0.73676 1.92806,-1.32184c0.3155,-0.30337 0.22786,-0.93179 -0.15775,-1.0618c-12.86544,-4.74561 -25.52055,-8.32107 -37.98285,-10.76972c-10.55176,-2.08027 -21.45409,-1.92858 -32.14607,-2.0586c-1.05167,-0.02167 -1.08673,-0.2817 -0.12269,-0.80177c1.03414,-0.54174 2.1384,-0.86678 3.31276,-0.99679c13.95217,-1.58187 30.39329,-1.71189 49.34089,-0.36838c14.46047,1.01846 28.74567,-1.14848 42.83806,-6.50083c1.24448,-0.47673 1.24448,-0.88845 -0.03506,-1.25683c-3.59321,-1.01846 -7.62461,-0.95346 -11.46321,-1.53853c-12.21691,-1.88524 -25.11741,-4.6806 -38.68396,-8.38608c-11.69107,-3.18541 -22.12014,-4.00885 -33.72358,-2.92538c-0.26292,0.02167 -0.40314,-0.10835 -0.45572,-0.41172l0,-0.02167c-0.03506,-0.32504 0.07011,-0.4984 0.3155,-0.56341c6.90597,-1.82023 13.89958,-4.07386 20.8932,-5.35235c27.93939,-5.13566 59.47199,-15.19028 82.1355,-35.8196c0.29797,-0.26003 0.29797,-0.82344 0,-1.10514c-0.12269,-0.10835 -0.24539,-0.19503 -0.40314,-0.26003c-0.15775,-0.06501 -0.33303,-0.10835 -0.50831,-0.08668c-15.75754,1.43018 -31.12946,2.8387 -47.13238,7.10758c-9.13201,2.44865 -18.57952,4.42057 -28.325,5.9591c-0.08764,0.02167 -0.14022,-0.04334 -0.15775,-0.17336l-0.01753,-0.02167c-0.01753,-0.23836 0.05258,-0.36838 0.24539,-0.41172c16.35348,-3.85716 32.63685,-9.42621 48.28922,-13.06668c17.40515,-4.03052 32.32135,-8.47275 49.30584,-16.51212zm-241.91936,236.80375c0.24539,-0.56341 0.26292,-1.25683 0.03506,-1.82023c-0.47325,-1.14848 -0.99909,-1.47352 -1.61256,-0.99679c-0.3155,0.23836 -0.57842,0.58508 -0.77123,1.01846c-6.608,14.02013 -12.74275,26.22003 -18.38671,36.55636c-7.72978,14.19349 -19.96422,35.16952 -36.72084,62.94975c-0.14022,0.23836 -0.12269,0.45506 0.07011,0.65008l0.52584,0.52007c0.22786,0.21669 0.4382,0.19503 0.631,-0.08668c21.43656,-30.83563 40.17383,-63.77319 56.22934,-98.79102z" id="svg_128"/>
   <path stroke="null" fill="#bef7f6" d="m861.90692,150.87233c-2.31368,3.42377 -4.31185,5.85075 -6.01205,7.25927c-6.81833,5.65573 -11.25288,13.69509 -14.86362,22.44955c-1.10425,2.68701 -1.34964,2.57866 -0.73617,-0.34671c1.33212,-6.21913 3.50557,-11.89653 6.53789,-16.98885c0.45572,-0.7801 0.631,-1.32184 0.50831,-1.60354c-0.35056,-0.86678 -1.24448,-1.12681 -1.89301,-0.56341c-4.24174,3.83549 -9.07943,5.82908 -12.84791,10.37967c-10.86727,13.11002 -16.54629,29.44878 -21.17364,47.2394c-0.01753,0.08668 -0.07011,0.13002 -0.14022,0.13002l-0.47325,0c-0.15775,0 -0.22786,-0.10835 -0.21033,-0.32504c0.77123,-7.3026 2.36626,-14.88691 5.55633,-21.30107c3.8386,-7.75766 7.37922,-16.1004 10.65693,-25.02821c0.64853,-1.75523 0.3155,-2.08027 -0.96403,-0.99679c-4.57477,3.85716 -7.94012,9.51289 -10.11357,16.94551c-0.52584,0.2817 -0.7537,-0.08668 -0.70111,-1.08347l2.55907,-10.20631c0.19281,-0.75843 0,-0.91012 -0.54336,-0.4984c-9.23718,7.06424 -16.10809,16.70715 -20.64781,28.92872c-4.97791,13.37005 -8.81651,27.06514 -11.53332,41.12862c-0.01753,0.08668 -0.05258,0.13002 -0.12269,0.10835l-0.4382,-0.13002c-0.28045,-0.06501 -0.40314,-0.2817 -0.35056,-0.62841c2.40132,-15.40698 5.31094,-27.88858 8.69381,-37.44481c2.36626,-6.65252 4.57477,-13.52174 6.64305,-20.60765c0.3155,-1.0618 0.26292,-1.75523 -0.15775,-2.10194c1.17437,-3.18541 2.89209,-6.00244 5.11813,-8.42942c4.73252,-5.13566 9.85065,-10.358 15.33687,-15.64534c0.66606,-0.65008 1.61256,-0.65008 2.27862,-0.04334c1.03414,0.93179 1.15684,1.92858 0.38561,2.96871c-1.29706,1.75523 -2.15593,3.55379 -2.55907,5.35235c-0.56089,2.49199 -0.10517,2.81703 1.3847,0.99679c7.27406,-8.97115 13.4088,-15.97038 23.24193,-22.12451c0.64853,-0.39005 1.15684,-0.21669 1.52492,0.54174l0.26292,0.54174c0.05258,0.06501 0.03506,0.13002 -0.01753,0.19503c-2.94468,3.22875 -5.45116,6.71753 -7.51945,10.46634c-0.54336,0.99679 -0.38561,1.23516 0.49078,0.69342c4.41702,-2.68701 8.58865,-6.39249 12.49736,-11.11643c2.82198,-3.4021 7.08125,-6.58751 12.81286,-9.55623c0.57842,-0.30337 1.10425,-0.26003 1.57751,0.10835c0.12269,0.10835 0.21033,0.26003 0.24539,0.45506c0.05258,0.41172 -0.03506,0.7801 -0.28045,1.0618c-2.24356,2.68701 -3.57568,5.63406 -4.01388,8.81947z" id="svg_130"/>
   <rect stroke="null" transform="matrix(1.66318 -0.683994 0.553265 2.05616 -18.2098 287.786)" fill="#bef7f6" x="492.2522" y="117.76533" width="13.52" height="0.58" rx="0.27" id="svg_131"/>
   <path stroke="null" fill="#bef7f6" d="m714.16469,329.927c0.4382,-14.90858 1.78784,-29.55713 4.01388,-43.96731c2.4539,-15.84037 4.71499,-30.46725 6.76575,-43.90231c0.29797,-1.97192 -0.14022,-2.27529 -1.31459,-0.86678c-5.04802,6.04578 -9.53515,11.83152 -13.47892,17.3789c-5.46869,7.67099 -7.90506,22.23286 -9.44751,31.83242c-3.01479,18.61406 -5.81925,38.24658 -8.41337,58.9409c-0.26292,2.14528 -0.7537,4.31222 -1.43728,6.47917c-1.12178,3.51045 -1.52492,3.38043 -1.19189,-0.36838c2.52401,-29.60047 6.01205,-60.5011 10.4466,-92.72358c0.54336,-3.96551 1.57751,-6.97756 3.10243,-9.03616c3.90871,-5.28735 7.74731,-10.66137 11.53332,-16.1004l21.10353,-25.30992c1.20942,-1.45185 2.0157,-1.17015 2.40132,0.86678c0.15775,0.7801 0.05258,1.5602 -0.3155,2.36197c-2.26109,4.94063 -3.85613,9.49122 -4.76757,13.65175c-0.29797,1.36518 -0.05258,1.51686 0.71864,0.4984c2.61165,-3.44544 4.73252,-7.54097 7.29158,-11.1381c4.10152,-5.76407 15.47709,-21.12771 20.27972,-21.84281c0.56089,-0.08668 0.98156,0.60674 0.77123,1.23516c-2.40132,7.12925 -5.20577,13.30504 -9.65784,18.98244c-3.41793,4.35556 -6.87092,8.84114 -10.39401,13.50007c-11.23535,14.88691 -17.73818,35.79793 -20.91072,55.88551c-2.27862,14.36685 -4.64488,28.90705 -7.09878,43.64227z" id="svg_133"/>
   <path stroke="null" fill="#bef7f6" d="m707.92478,234.36472c-4.39949,10.27132 -8.78145,19.89255 -14.88114,29.10207c-11.86635,17.92063 -21.03342,35.55957 -27.53625,52.9168c-7.08125,18.9391 -12.04163,40.34852 -14.89867,64.20658c-1.52492,12.74164 -2.92715,24.8982 -4.17163,36.44801c-0.01753,0.08668 -0.05258,0.13002 -0.12269,0.13002l-0.52584,-0.06501c-0.22786,-0.02167 -0.33303,-0.17336 -0.3155,-0.45506c1.3847,-33.80434 4.4696,-67.06695 9.28976,-99.76615c0.50831,-3.35876 -0.07011,-3.66214 -1.7002,-0.88845c-3.87365,6.56584 -7.88753,13.45673 -12.05916,20.67266c-2.48895,4.31222 -4.92533,11.54982 -7.32664,21.66945c-6.67811,28.27863 -8.16798,57.20735 -9.23718,86.6778c-0.01753,0.32504 -0.22786,0.58508 -0.47325,0.56341l-0.45572,-0.02167c-0.10517,0 -0.15775,-0.06501 -0.15775,-0.19503c-0.14022,-27.56354 1.24448,-55.86384 3.01479,-84.68421c0.12269,-1.8419 0,-3.77048 -0.35056,-5.76407c-0.07011,-0.45506 -0.54336,-0.58508 -0.77123,-0.21669c-10.56929,16.79382 -16.58134,35.88461 -18.03616,57.25069c-1.24448,17.9423 -2.22604,35.19119 -2.97973,51.74665c-0.08764,1.71189 -0.29797,3.51045 -0.631,5.37402c-0.33303,1.75523 -0.61347,3.53212 -0.84134,5.37402c0,0.02167 -0.01753,0.04334 -0.05258,0.04334c-0.01753,0 -0.03506,-0.04334 -0.03506,-0.06501c0.64853,-21.32274 0.87639,-42.68882 0.64853,-64.09823c-0.08764,-9.10117 0.78875,-19.39416 2.62918,-30.8573c5.90688,-21.04104 14.37284,-40.41352 25.3628,-58.09579c6.64305,-10.68304 13.32116,-20.58598 20.03433,-29.70882c2.66423,-3.6188 3.22512,-3.18541 1.68267,1.34351c-0.82381,2.38364 -1.87548,5.43903 -2.99726,7.58431c-4.39949,8.34274 -8.79898,16.83716 -13.23353,25.48327c-0.17528,0.36838 -0.10517,0.84511 0.19281,1.0618l0.36808,0.30337c0.05258,0.04334 0.10517,0.02167 0.15775,-0.04334c4.53971,-8.97115 9.92076,-17.33556 16.10809,-25.11489c0.35056,-0.45506 0.9465,-0.41172 1.26201,0.06501c0.77123,1.19182 0.87639,3.09873 0.29797,5.72073c-0.36808,1.71189 -0.15775,1.8419 0.66606,0.36838c1.43728,-2.64367 2.1384,-5.7424 3.61074,-8.45109c9.6929,-18.00731 20.19208,-34.58444 31.48002,-49.75306c4.94285,-6.63085 10.28885,-12.65496 16.03798,-18.07232c0.45572,-0.43339 1.13931,-0.21669 1.36717,0.45506c0.17528,0.52007 0.03506,1.10514 -0.42067,1.75523z" id="svg_137"/>
   <path stroke="null" fill="#bef7f6" d="m839.26094,288.49501c-0.78875,0.34671 -0.84134,0.19503 -0.17528,-0.43339c1.40223,-1.32184 2.89209,-2.622 4.48713,-3.85716c0.89392,-0.71509 0.99909,-0.56341 0.3155,0.45506c-1.20942,1.75523 -2.75187,3.03372 -4.62735,3.83549z" id="svg_140"/>
   <path stroke="null" fill="#bef7f6" d="m601.23276,377.70813c-4.36443,12.78498 -7.37922,26.80511 -9.04437,42.03873c-3.24265,29.53546 -5.34599,57.099 -6.31003,82.73396c-0.03506,0.62841 -0.45572,1.12681 -0.96403,1.10514l-0.47325,0c-0.15775,0 -0.24539,-0.10835 -0.24539,-0.30337c0.42067,-26.84845 1.31459,-53.91359 2.69929,-81.17376c0.7537,-15.3203 2.41884,-30.05553 4.96038,-44.22735c0.3155,-1.75523 0.07011,-1.86357 -0.73617,-0.36838c-12.53241,23.40301 -22.57587,47.88948 -25.18752,74.73793c-1.78784,18.28902 -2.24356,36.38301 -1.34964,54.30364c0.33303,6.65252 0.49078,13.34838 0.50831,20.10925c0,2.44865 -0.19281,2.47032 -0.57842,0.08668l-9.0619,-57.12067c-0.08764,-0.60674 -0.73617,-0.73676 -0.98156,-0.19503c-2.82198,6.28414 -4.69746,12.37326 -5.60891,18.28902c-0.61347,3.87883 -0.26292,9.49122 1.01662,16.81549c1.92806,10.96474 3.59321,21.53943 4.97791,31.74574c0.64853,4.6806 0.80628,9.05783 0.47325,13.11002c-0.12269,1.71189 -0.35056,1.71189 -0.64853,0.04334c-2.08581,-11.50648 -4.01388,-22.86127 -5.74913,-34.02104c-2.75187,-17.74728 -11.56838,-32.80755 -18.49188,-47.91115c-0.54336,-1.21349 -0.80628,-1.12681 -0.77123,0.26003c0.82381,26.61008 3.31276,51.94167 7.44934,76.01643c1.64762,9.64291 2.90962,19.84922 4.10152,29.73049c1.20942,10.18464 0.42067,10.42301 -2.36626,0.73676c-1.24448,-4.31222 -3.96129,-10.44467 -8.15045,-18.35402c-11.30546,-17.50892 -16.58134,-37.48815 -15.84518,-59.95937c0.35056,-10.6397 1.10425,-21.2794 3.15501,-31.44237c2.19098,-10.76972 4.66241,-21.62611 7.44934,-32.56918c0.68359,-2.70868 1.41976,-2.75202 2.22604,-0.08668l15.9854,52.63509c0.42067,1.38684 0.70111,1.34351 0.82381,-0.13002c0.54336,-6.39249 1.01662,-12.78498 2.54154,-19.11245c5.34599,-22.08117 12.07669,-41.80037 20.15703,-59.1576c12.47983,-26.76177 27.64142,-52.9168 45.46724,-78.42174c0.82381,-1.17015 1.36717,-0.99679 1.63009,0.52007c0.03506,0.23836 -0.05258,0.80177 -0.26292,1.73356c-3.73343,16.16541 -8.01023,32.09246 -12.79533,47.80281zm-77.01737,84.55419c-3.10243,18.39736 -1.94559,37.55316 3.82107,54.91039c0.03506,0.10835 0.08764,0.13002 0.17528,0.10835l0.4382,-0.17336c0.15775,-0.06501 0.21033,-0.17336 0.17528,-0.36838c-3.31276,-18.05065 -4.5923,-36.20965 -3.82107,-54.45533c0,-0.10835 -0.03506,-0.15169 -0.10517,-0.15169l-0.47325,-0.06501c-0.12269,-0.02167 -0.19281,0.04334 -0.21033,0.19503z" id="svg_142"/>
   <path stroke="null" fill="#bef7f6" d="m740.59668,453.07448l-52.77635,13.60841c-1.7002,0.45506 -1.71773,0.36838 -0.05258,-0.26003c12.83039,-4.76728 25.34527,-10.46634 37.52712,-17.0972c3.22512,-1.75523 5.88936,-3.70548 8.01023,-5.85075c2.27862,-2.31863 1.98065,-3.09873 -0.91145,-2.3403c-22.19026,5.85075 -44.78365,11.24644 -67.78019,16.16541c-5.24083,1.12681 -10.23626,2.01526 -14.95125,2.68701c-0.08764,0.02167 -0.12269,-0.02167 -0.14022,-0.13002c-0.03506,-0.26003 -0.05258,-0.34671 -0.07011,-0.2817c-0.01753,0.10835 0,0.13002 0.08764,0.10835c17.59796,-4.74561 35.19592,-9.53456 52.77635,-14.34518c21.12106,-5.78574 40.33158,-16.16541 57.63157,-31.139c0.15775,-0.15169 0.19281,-0.32504 0.08764,-0.52007l-0.01753,-0.02167c-0.10517,-0.19503 -0.24539,-0.23836 -0.40314,-0.10835c-5.31094,3.92217 -10.95491,6.95589 -16.89685,9.10117c-15.75754,5.7424 -31.72541,10.16297 -47.86855,13.30504c-1.41976,0.06501 -2.10334,-0.41172 -2.05076,-1.45185c13.30364,-2.92538 26.3093,-7.3026 39.03452,-13.17503c11.84883,-5.43903 22.05003,-12.89332 33.05752,-19.52417c0.42067,-0.26003 0.57842,-0.86678 0.36808,-1.36518c-0.15775,-0.34671 -0.36808,-0.60674 -0.66606,-0.80177c-0.29797,-0.21669 -0.631,-0.32504 -0.98156,-0.30337c-5.80172,0.15169 -11.48074,1.21349 -17.03707,3.20708l-3.66332,-0.23836c-0.68359,-0.04334 -0.99909,-0.47673 -0.9465,-1.30017c0.03506,-0.52007 0.24539,-1.04013 0.61347,-1.58187l35.63412,-10.24965c9.97335,-4.9623 19.5085,-8.23439 28.58792,-9.79459c2.40132,-0.41172 2.71682,0.41172 0.9465,2.47032c-15.02137,17.31389 -30.65621,32.76421 -46.92205,46.30761c-3.45299,2.88204 -8.55359,6.26247 -15.30181,10.1413c-0.12269,0.06501 -0.17528,0.19503 -0.12269,0.36838l0.24539,0.86678c0.05258,0.19503 0.17528,0.2817 0.35056,0.23836c12.33961,-3.68381 23.62754,-8.64611 33.84628,-14.90858c1.52492,-0.93179 1.75278,-0.58508 0.64853,1.01846c-9.83312,14.28017 -25.69583,22.23286 -39.89338,27.19516z" id="svg_146"/>
   <path stroke="null" fill="#bef7f6" d="m420.01234,416.77815l-18.24649,3.66214c-50.30493,10.89973 -98.19101,30.18554 -143.64072,57.85743c-3.26018,1.97192 -6.39766,3.98718 -9.41245,6.04578c-0.54336,0.36838 -0.57842,0.80177 -0.10517,1.30017c30.60362,32.37416 56.66753,73.95783 77.3504,115.73653c24.01315,48.45289 44.29287,99.52778 59.06885,155.02324c9.09695,34.17272 16.38854,67.93373 21.85723,101.23967c2.3312,14.28017 3.78602,28.27863 4.36443,41.97372c0.03506,0.75843 -0.631,1.23516 -1.15684,0.86678c-1.27953,-0.91012 -2.26109,-2.16694 -2.94468,-3.79215c-10.65693,-25.20157 -21.34892,-49.81807 -32.05843,-73.80615c-31.70788,-71.05413 -71.89923,-136.12748 -120.18846,-191.49293c-20.20961,-23.18631 -43.74951,-45.83089 -70.6197,-67.91206c-26.20413,-21.51776 -54.10847,-39.26504 -83.713,-53.24184c-4.04893,-1.90691 -8.11539,-3.51045 -12.23444,-4.78895c-0.3155,-0.10835 -0.38561,-0.62841 -0.10517,-0.84511l43.64434,-35.08284c18.91255,-12.82831 37.35185,-24.18311 55.30036,-34.06438c26.39694,-14.41018 55.12508,-26.2417 86.18443,-35.5379c89.26933,-26.71843 178.66136,-26.15503 268.17608,1.69022c6.39766,1.99359 12.54994,4.61559 18.45682,7.86601c0.73617,0.41172 0.99909,1.53853 0.52584,2.36197c-0.70111,1.21349 -1.68267,1.77689 -2.92715,1.66855c-37.59723,-2.92538 -75.45739,-3.05539 -112.9144,-0.02167c-8.15045,0.67175 -16.37101,1.75523 -24.66168,3.29376zm-227.30114,68.99553c-0.57842,-0.56341 -0.54336,-1.64688 0.07011,-2.14528c43.85468,-35.5379 92.86254,-58.72421 144.51711,-72.89603c33.11011,-9.0795 66.99144,-14.32351 101.60894,-15.73202c11.30546,-0.45506 23.78529,-0.75843 37.43948,-0.88845c0.28045,0 0.42067,-0.17336 0.42067,-0.54174l0,-0.02167c0.01753,-0.15169 -0.05258,-0.23836 -0.19281,-0.23836c-34.52986,-2.40531 -70.35678,-1.21349 -107.49829,3.57546c-66.25527,8.5811 -131.84448,33.50097 -189.52863,70.96745c-11.32299,7.34594 -23.06665,15.45032 -35.2485,24.33479c-1.57751,1.14848 -1.52492,2.16694 0.17528,3.03372c23.9781,12.24324 46.95711,28.14862 68.9195,47.71613c57.85943,51.50828 104.65878,116.55997 140.39807,195.1334c15.09148,33.17593 28.50028,67.65202 40.19136,103.40661c0.01753,0.06501 0.05258,0.06501 0.10517,0.04334l0.42067,-0.19503c0.22786,-0.10835 0.35056,-0.43339 0.26292,-0.71509c-21.90981,-76.27646 -52.53096,-146.33379 -91.0747,-212.12224c-30.09532,-51.37827 -65.09843,-97.23082 -105.00934,-137.536c-1.91054,-1.92858 -4.08399,-3.31543 -5.977,-5.179z" id="svg_147"/>
   <path stroke="null" fill="#bef7f6" d="m127.49007,573.27492c56.21181,31.26902 107.51582,73.43777 153.89451,126.48458c20.59522,23.57636 39.49024,49.7964 56.68506,78.68177c11.76119,19.74087 21.22622,39.9368 28.41264,60.58778c0.21033,0.58508 0.15775,1.25683 -0.12269,1.77689c-0.7537,1.40851 -1.59503,1.40851 -2.55907,-0.04334c-21.06847,-31.44237 -43.10098,-60.91282 -66.09752,-88.38969c-48.37686,-57.79242 -102.62555,-105.42187 -162.72855,-142.88835c-13.72431,-8.55943 -27.86928,-16.3171 -42.43492,-23.25132c-0.45572,-0.21669 -0.54336,-0.95346 -0.15775,-1.30017c7.69473,-7.2376 16.07304,-13.86845 25.11741,-19.91422c0.631,-0.43339 1.43728,-0.21669 1.87548,0.4984c2.06829,3.31543 4.76757,5.89409 8.11539,7.75766z" id="svg_157"/>
   <path stroke="null" id="svg_2" d="m524.92652,458.3804l-6.25995,21.05032l2.75438,34.36156l9.01432,8.35822l-1.50239,-38.69545l-1.00159,-22.59814l-3.00477,-2.47651z" opacity="NaN" fill="#bef7f6"/>
  </g>
 </g>

</svg>